<svg id="图层_1" data-name="图层 1" xmlns="http://www.w3.org/2000/svg" viewBox="0 0 378.24 452.87"><defs><style>.cls-1{fill:#fff;}.cls-2{fill:none;stroke:#040000;stroke-miterlimit:10;stroke-width:7px;}.cls-3{fill:#e71f19;}</style></defs><title>cam</title><path class="cls-1" d="M339.26,42.59C253.67-13,101.91-.24,49.6,42.59a62.42,62.42,0,0,0-15.82,19.2v0l-.31.62c-.27.52-.52,1-.77,1.56-5.76,11.62-32.24,66.58-28,84.74,4.77,20.36,21.47,48.4,21.47,48.4s1.2,61.46,7.24,75.78S52.5,291.62,63,292.58c2.5.22,5.12.27,8.06.5V293a32.08,32.08,0,0,0,4.55.86,46.76,46.76,0,0,1,10,2.22l.06,0A88.41,88.41,0,0,1,102,304l4.26,43.15H41.12a6.31,6.31,0,0,0-6.31,6.3V445.1a6.32,6.32,0,0,0,6.31,6.31h265a6.31,6.31,0,0,0,6.31-6.31V353.42a6.3,6.3,0,0,0-6.31-6.3H224.76l2.17-16.88h0c13.8-3.74,28.11-9.37,39.94-17,14.87-9.57,28.74-16.32,39.14-19.85l.69-.23A64,64,0,0,1,318,290.83a32.19,32.19,0,0,0,28.34-32V179.48C350.17,174.61,414.27,91.28,339.26,42.59ZM320.85,252.81a15.64,15.64,0,0,1-15.65,15.65H96.78a15.65,15.65,0,0,1-15.65-15.65V115.39A15.66,15.66,0,0,1,96.78,99.73H305.2a15.65,15.65,0,0,1,15.65,15.66Z" transform="translate(-0.75 -2.04)"/><path class="cls-2" d="M46.7,173.71S-2.71,85.41,49.6,42.59s204.07-55.57,289.66,0c77.28,50.17,6.88,137.12,6.88,137.12" transform="translate(-0.75 -2.04)"/><path class="cls-2" d="M345.12,179.71" transform="translate(-0.75 -2.04)"/><line class="cls-2" x1="25.43" y1="195.04" x2="45.96" y2="171.67"/><line class="cls-2" x1="9.05" y1="166.74" x2="32.45" y2="140.3"/><path class="cls-2" d="M85.64,296.11c7.68,2.65,17.33,7.63,30.16,17.14,29.58,21.95,55.66,22.9,75.38,22.58s52.48-7.63,75.69-22.58c14.87-9.57,28.74-16.32,39.14-19.85l.69-.23A64,64,0,0,1,318,290.83a32.19,32.19,0,0,0,28.34-32V106.6a32.2,32.2,0,0,0-32.2-32.19h-.8a55.48,55.48,0,0,1-32.26-10.13,145.41,145.41,0,0,0-168.74,0A55.45,55.45,0,0,1,80.08,74.41h-.81A32.19,32.19,0,0,0,47.08,106.6V261.87a32.21,32.21,0,0,0,28.52,32,46.18,46.18,0,0,1,10,2.23Z" transform="translate(-0.75 -2.04)"/><path class="cls-2" d="M33.77,61.76S-.06,128.33,4.71,148.68s21.47,48.4,21.47,48.4,1.2,61.46,7.24,75.78S52.5,291.62,63,292.58c2.5.22,5.12.27,8.06.5" transform="translate(-0.75 -2.04)"/><rect class="cls-2" x="77.11" y="97.7" width="239.72" height="168.73" rx="15.65"/><path class="cls-2" d="M102,304l10.1,102.24a6.3,6.3,0,0,0,6.27,5.68h92.49a6.3,6.3,0,0,0,6.24-5.44l9.81-76.21" transform="translate(-0.75 -2.04)"/><path class="cls-2" d="M225.3,347.12h80.77a6.3,6.3,0,0,1,6.31,6.3V445.1a6.31,6.31,0,0,1-6.31,6.31H41.12a6.32,6.32,0,0,1-6.31-6.31V353.42a6.31,6.31,0,0,1,6.31-6.3h65.22" transform="translate(-0.75 -2.04)"/><circle class="cls-3" cx="196.97" cy="180.67" r="11.12"/></svg>